<mxfile host="app.diagrams.net" modified="2024-05-15T10:50:42.378Z" agent="Mozilla/5.0 (Windows NT 10.0; Win64; x64; rv:125.0) Gecko/20100101 Firefox/125.0" etag="77TaXUH4rV7rfkYQPUPz" version="24.4.0" type="github">
  <diagram name="Page-1" id="0783ab3e-0a74-02c8-0abd-f7b4e66b4bec">
    <mxGraphModel dx="2049" dy="1066" grid="1" gridSize="10" guides="1" tooltips="1" connect="1" arrows="1" fold="1" page="1" pageScale="1" pageWidth="850" pageHeight="1100" background="none" math="0" shadow="0">
      <root>
        <mxCell id="0" />
        <mxCell id="1" parent="0" />
        <mxCell id="1c1d494c118603dd-1" value="Pool" style="swimlane;html=1;childLayout=stackLayout;startSize=20;rounded=0;shadow=0;comic=0;labelBackgroundColor=none;strokeWidth=1;fontFamily=Verdana;fontSize=12;align=center;" parent="1" vertex="1">
          <mxGeometry x="40" y="20" width="863.5002996011519" height="990" as="geometry" />
        </mxCell>
        <mxCell id="1c1d494c118603dd-2" value="Lane 1" style="swimlane;html=1;startSize=20;" parent="1c1d494c118603dd-1" vertex="1">
          <mxGeometry y="20" width="330" height="970" as="geometry" />
        </mxCell>
        <mxCell id="1c1d494c118603dd-10" value="&lt;font style=&quot;font-size: 14px;&quot; face=&quot;Calibri&quot;&gt;classified Object&lt;/font&gt;" style="rounded=0;whiteSpace=wrap;html=1;shadow=0;comic=0;labelBackgroundColor=none;strokeWidth=1;fontFamily=Verdana;fontSize=12;align=center;arcSize=50;" parent="1c1d494c118603dd-2" vertex="1">
          <mxGeometry x="140" y="280" width="70" height="30" as="geometry" />
        </mxCell>
        <mxCell id="1c1d494c118603dd-46" style="edgeStyle=none;rounded=0;html=1;labelBackgroundColor=none;startArrow=none;startFill=0;startSize=5;endArrow=oval;endFill=0;endSize=5;jettySize=auto;orthogonalLoop=1;strokeWidth=1;fontFamily=Verdana;fontSize=12;dashed=1;entryX=0;entryY=1;entryDx=0;entryDy=0;exitX=0;exitY=0;exitDx=0;exitDy=0;exitPerimeter=0;" parent="1c1d494c118603dd-2" source="1c1d494c118603dd-21" target="UACE9q_lkyPn0epldcP_-63" edge="1">
          <mxGeometry relative="1" as="geometry">
            <mxPoint x="120.625" y="250" as="targetPoint" />
          </mxGeometry>
        </mxCell>
        <mxCell id="1c1d494c118603dd-47" style="edgeStyle=none;rounded=0;html=1;dashed=1;labelBackgroundColor=none;startArrow=none;startFill=0;startSize=5;endArrow=oval;endFill=0;endSize=5;jettySize=auto;orthogonalLoop=1;strokeWidth=1;fontFamily=Verdana;fontSize=12" parent="1c1d494c118603dd-2" source="1c1d494c118603dd-21" target="1c1d494c118603dd-10" edge="1">
          <mxGeometry relative="1" as="geometry" />
        </mxCell>
        <mxCell id="1c1d494c118603dd-21" value="&lt;font style=&quot;font-size: 12px;&quot; face=&quot;Calibri&quot;&gt;reading the data, eg. weight &lt;/font&gt;" style="shape=note;whiteSpace=wrap;html=1;rounded=0;shadow=0;comic=0;labelBackgroundColor=none;strokeWidth=1;fontFamily=Verdana;fontSize=12;align=center;size=20;" parent="1c1d494c118603dd-2" vertex="1">
          <mxGeometry x="20" y="274" width="85" height="42" as="geometry" />
        </mxCell>
        <mxCell id="UACE9q_lkyPn0epldcP_-8" value="&lt;font style=&quot;font-size: 16px;&quot; face=&quot;Calibri&quot;&gt;terminate the entire machine&lt;/font&gt;" style="rounded=0;whiteSpace=wrap;html=1;" parent="1c1d494c118603dd-2" vertex="1">
          <mxGeometry x="20" y="480" width="120" height="60" as="geometry" />
        </mxCell>
        <mxCell id="1c1d494c118603dd-23" value="&lt;font style=&quot;font-size: 16px;&quot; face=&quot;Calibri&quot;&gt;decide whether we need to use a new cart&lt;br&gt;&lt;/font&gt;" style="shape=note;whiteSpace=wrap;html=1;rounded=0;shadow=0;comic=0;labelBackgroundColor=none;strokeWidth=1;fontFamily=Verdana;fontSize=12;align=center;size=20;" parent="1c1d494c118603dd-2" vertex="1">
          <mxGeometry x="230" y="455" width="100" height="115" as="geometry" />
        </mxCell>
        <mxCell id="1c1d494c118603dd-24" value="&lt;font style=&quot;font-size: 15px;&quot; face=&quot;Calibri&quot;&gt;simulates long range transfer&lt;br&gt;&lt;/font&gt;" style="shape=note;whiteSpace=wrap;html=1;rounded=0;shadow=0;comic=0;labelBackgroundColor=none;strokeWidth=1;fontFamily=Verdana;fontSize=12;align=center;size=20;" parent="1c1d494c118603dd-2" vertex="1">
          <mxGeometry x="60" y="648" width="175" height="72" as="geometry" />
        </mxCell>
        <mxCell id="UACE9q_lkyPn0epldcP_-21" value="" style="endArrow=open;startArrow=cross;endFill=0;startFill=0;endSize=8;startSize=10;html=1;rounded=0;entryX=0.5;entryY=0;entryDx=0;entryDy=0;" parent="1c1d494c118603dd-2" target="UACE9q_lkyPn0epldcP_-8" edge="1">
          <mxGeometry width="160" relative="1" as="geometry">
            <mxPoint x="120" y="440" as="sourcePoint" />
            <mxPoint x="300" y="390" as="targetPoint" />
          </mxGeometry>
        </mxCell>
        <mxCell id="UACE9q_lkyPn0epldcP_-29" value="" style="endArrow=none;html=1;rounded=0;entryX=0.5;entryY=1;entryDx=0;entryDy=0;exitX=0.75;exitY=0;exitDx=0;exitDy=0;" parent="1c1d494c118603dd-2" target="1c1d494c118603dd-10" edge="1">
          <mxGeometry width="50" height="50" relative="1" as="geometry">
            <mxPoint x="155" y="335" as="sourcePoint" />
            <mxPoint x="400" y="400" as="targetPoint" />
          </mxGeometry>
        </mxCell>
        <mxCell id="UACE9q_lkyPn0epldcP_-31" value="&lt;font face=&quot;Calibri&quot;&gt;both info agreed?&lt;br&gt;&lt;/font&gt;" style="rhombus;whiteSpace=wrap;html=1;fontColor=#000000;fillColor=#ffffc0;strokeColor=#ff0000;" parent="1c1d494c118603dd-2" vertex="1">
          <mxGeometry x="190" y="380" width="80" height="40" as="geometry" />
        </mxCell>
        <mxCell id="UACE9q_lkyPn0epldcP_-32" value="no" style="edgeStyle=orthogonalEdgeStyle;html=1;align=left;verticalAlign=bottom;endArrow=open;endSize=8;strokeColor=#ff0000;rounded=0;" parent="1c1d494c118603dd-2" source="UACE9q_lkyPn0epldcP_-31" edge="1">
          <mxGeometry x="0.0903" y="20" relative="1" as="geometry">
            <mxPoint x="120" y="440" as="targetPoint" />
            <Array as="points">
              <mxPoint x="150" y="400" />
              <mxPoint x="150" y="440" />
            </Array>
            <mxPoint as="offset" />
          </mxGeometry>
        </mxCell>
        <mxCell id="UACE9q_lkyPn0epldcP_-34" value="Use" style="endArrow=open;endSize=12;dashed=1;html=1;rounded=0;exitX=0.5;exitY=1;exitDx=0;exitDy=0;entryX=0.5;entryY=0;entryDx=0;entryDy=0;" parent="1c1d494c118603dd-2" source="UACE9q_lkyPn0epldcP_-65" target="UACE9q_lkyPn0epldcP_-31" edge="1">
          <mxGeometry width="160" relative="1" as="geometry">
            <mxPoint x="155" y="365" as="sourcePoint" />
            <mxPoint x="450" y="450" as="targetPoint" />
          </mxGeometry>
        </mxCell>
        <mxCell id="UACE9q_lkyPn0epldcP_-47" value="" style="shape=umlDestroy;whiteSpace=wrap;html=1;strokeWidth=3;targetShapes=umlLifeline;" parent="1c1d494c118603dd-2" vertex="1">
          <mxGeometry x="65" y="530" width="30" height="30" as="geometry" />
        </mxCell>
        <mxCell id="UACE9q_lkyPn0epldcP_-63" value="&lt;font style=&quot;font-size: 15px;&quot; face=&quot;Calibri&quot;&gt;NFC decode&lt;/font&gt;" style="rounded=1;whiteSpace=wrap;html=1;arcSize=40;fontColor=#000000;fillColor=#ffffc0;strokeColor=#ff0000;" parent="1c1d494c118603dd-2" vertex="1">
          <mxGeometry x="30" y="150" width="120" height="40" as="geometry" />
        </mxCell>
        <mxCell id="UACE9q_lkyPn0epldcP_-64" value="" style="edgeStyle=orthogonalEdgeStyle;html=1;verticalAlign=bottom;endArrow=open;endSize=8;strokeColor=#ff0000;rounded=0;entryX=0.25;entryY=0;entryDx=0;entryDy=0;" parent="1c1d494c118603dd-2" source="UACE9q_lkyPn0epldcP_-63" target="1c1d494c118603dd-10" edge="1">
          <mxGeometry relative="1" as="geometry">
            <mxPoint x="80" y="270" as="targetPoint" />
          </mxGeometry>
        </mxCell>
        <mxCell id="UACE9q_lkyPn0epldcP_-65" value="&lt;font style=&quot;font-size: 18px;&quot; face=&quot;Calibri&quot;&gt;valiate info&lt;br&gt;&lt;/font&gt;" style="rounded=1;whiteSpace=wrap;html=1;arcSize=40;fontColor=#000000;fillColor=#ffffc0;strokeColor=#ff0000;" parent="1c1d494c118603dd-2" vertex="1">
          <mxGeometry x="60" y="330" width="120" height="40" as="geometry" />
        </mxCell>
        <mxCell id="1c1d494c118603dd-52" style="edgeStyle=none;rounded=0;html=1;dashed=1;labelBackgroundColor=none;startArrow=none;startFill=0;startSize=5;endArrow=oval;endFill=0;endSize=5;jettySize=auto;orthogonalLoop=1;strokeWidth=1;fontFamily=Verdana;fontSize=12;entryX=0;entryY=0;entryDx=0;entryDy=0;" parent="1c1d494c118603dd-1" source="1c1d494c118603dd-23" target="UACE9q_lkyPn0epldcP_-62" edge="1">
          <mxGeometry relative="1" as="geometry">
            <mxPoint x="354" y="491.09756097560967" as="targetPoint" />
          </mxGeometry>
        </mxCell>
        <mxCell id="1c1d494c118603dd-54" style="edgeStyle=none;rounded=0;html=1;dashed=1;labelBackgroundColor=none;startArrow=none;startFill=0;startSize=5;endArrow=oval;endFill=0;endSize=5;jettySize=auto;orthogonalLoop=1;strokeWidth=1;fontFamily=Verdana;fontSize=12;entryX=0.038;entryY=0.407;entryDx=0;entryDy=0;entryPerimeter=0;" parent="1c1d494c118603dd-1" source="1c1d494c118603dd-24" target="UACE9q_lkyPn0epldcP_-51" edge="1">
          <mxGeometry relative="1" as="geometry">
            <mxPoint x="375" y="754.0090090090089" as="targetPoint" />
          </mxGeometry>
        </mxCell>
        <mxCell id="1c1d494c118603dd-58" style="edgeStyle=none;rounded=0;html=1;dashed=1;labelBackgroundColor=none;startArrow=none;startFill=0;startSize=5;endArrow=oval;endFill=0;endSize=5;jettySize=auto;orthogonalLoop=1;strokeWidth=1;fontFamily=Verdana;fontSize=12;entryX=1;entryY=0.75;entryDx=0;entryDy=0;" parent="1c1d494c118603dd-1" source="1c1d494c118603dd-26" target="UACE9q_lkyPn0epldcP_-75" edge="1">
          <mxGeometry relative="1" as="geometry">
            <mxPoint x="509.9999999999998" y="911.0658515863563" as="targetPoint" />
          </mxGeometry>
        </mxCell>
        <mxCell id="UACE9q_lkyPn0epldcP_-20" value="yes" style="edgeStyle=orthogonalEdgeStyle;html=1;align=left;verticalAlign=top;endArrow=open;endSize=8;strokeColor=#ff0000;rounded=0;entryX=1;entryY=0.5;entryDx=0;entryDy=0;" parent="1c1d494c118603dd-1" source="UACE9q_lkyPn0epldcP_-18" target="UACE9q_lkyPn0epldcP_-63" edge="1">
          <mxGeometry x="-0.8367" relative="1" as="geometry">
            <mxPoint x="165" y="240" as="targetPoint" />
            <mxPoint as="offset" />
          </mxGeometry>
        </mxCell>
        <mxCell id="UACE9q_lkyPn0epldcP_-19" value="no" style="edgeStyle=orthogonalEdgeStyle;html=1;align=left;verticalAlign=bottom;endArrow=open;endSize=8;strokeColor=#ff0000;rounded=0;entryX=0.5;entryY=0;entryDx=0;entryDy=0;" parent="1c1d494c118603dd-1" source="UACE9q_lkyPn0epldcP_-18" target="1c1d494c118603dd-5" edge="1">
          <mxGeometry x="-1" relative="1" as="geometry">
            <mxPoint x="533.5" y="240" as="targetPoint" />
          </mxGeometry>
        </mxCell>
        <mxCell id="UACE9q_lkyPn0epldcP_-27" value="dispatch" style="html=1;verticalAlign=bottom;endArrow=block;curved=0;rounded=0;exitX=1;exitY=0.75;exitDx=0;exitDy=0;entryX=0;entryY=0.25;entryDx=0;entryDy=0;" parent="1c1d494c118603dd-1" source="UACE9q_lkyPn0epldcP_-63" target="1c1d494c118603dd-8" edge="1">
          <mxGeometry width="80" relative="1" as="geometry">
            <mxPoint x="190" y="255" as="sourcePoint" />
            <mxPoint x="410" y="430" as="targetPoint" />
          </mxGeometry>
        </mxCell>
        <mxCell id="1c1d494c118603dd-51" style="edgeStyle=none;rounded=0;html=1;dashed=1;labelBackgroundColor=none;startArrow=none;startFill=0;startSize=5;endArrow=oval;endFill=0;endSize=5;jettySize=auto;orthogonalLoop=1;strokeWidth=1;fontFamily=Verdana;fontSize=12;entryX=1;entryY=0.75;entryDx=0;entryDy=0;" parent="1c1d494c118603dd-1" source="1c1d494c118603dd-22" target="UACE9q_lkyPn0epldcP_-65" edge="1">
          <mxGeometry relative="1" as="geometry">
            <mxPoint x="180" y="370" as="targetPoint" />
          </mxGeometry>
        </mxCell>
        <mxCell id="UACE9q_lkyPn0epldcP_-28" value="return" style="html=1;verticalAlign=bottom;endArrow=open;dashed=1;endSize=8;curved=0;rounded=0;exitX=0;exitY=0.75;exitDx=0;exitDy=0;entryX=1;entryY=0.5;entryDx=0;entryDy=0;" parent="1c1d494c118603dd-1" source="1c1d494c118603dd-8" target="UACE9q_lkyPn0epldcP_-65" edge="1">
          <mxGeometry relative="1" as="geometry">
            <mxPoint x="410" y="430" as="sourcePoint" />
            <mxPoint x="180" y="362.5" as="targetPoint" />
          </mxGeometry>
        </mxCell>
        <mxCell id="1c1d494c118603dd-3" value="Lane 2" style="swimlane;html=1;startSize=20;" parent="1c1d494c118603dd-1" vertex="1">
          <mxGeometry x="330" y="20" width="283.50029960115194" height="970" as="geometry" />
        </mxCell>
        <mxCell id="UACE9q_lkyPn0epldcP_-17" value="&lt;font face=&quot;Calibri&quot;&gt;end of processes&lt;br&gt;&lt;/font&gt;" style="text;html=1;align=center;verticalAlign=middle;whiteSpace=wrap;rounded=0;" parent="1c1d494c118603dd-3" vertex="1">
          <mxGeometry x="173.5" y="920" width="60" height="30" as="geometry" />
        </mxCell>
        <mxCell id="UACE9q_lkyPn0epldcP_-18" value="&lt;font style=&quot;font-size: 12px;&quot; face=&quot;Calibri&quot;&gt;valid object?&lt;/font&gt;" style="rhombus;whiteSpace=wrap;html=1;fontColor=#000000;fillColor=#ffffc0;strokeColor=#ff0000;" parent="1c1d494c118603dd-3" vertex="1">
          <mxGeometry x="80" y="160" width="80" height="40" as="geometry" />
        </mxCell>
        <mxCell id="UACE9q_lkyPn0epldcP_-43" value="" style="shape=line;html=1;strokeWidth=6;strokeColor=#ff0000;" parent="1c1d494c118603dd-3" vertex="1">
          <mxGeometry x="58.5" y="590" width="200" height="10" as="geometry" />
        </mxCell>
        <mxCell id="UACE9q_lkyPn0epldcP_-44" value="" style="edgeStyle=orthogonalEdgeStyle;html=1;verticalAlign=bottom;endArrow=open;endSize=8;strokeColor=#ff0000;rounded=0;entryX=0.5;entryY=0;entryDx=0;entryDy=0;" parent="1c1d494c118603dd-3" source="UACE9q_lkyPn0epldcP_-43" target="UACE9q_lkyPn0epldcP_-69" edge="1">
          <mxGeometry relative="1" as="geometry">
            <mxPoint x="158.5" y="670" as="targetPoint" />
            <Array as="points">
              <mxPoint x="159" y="615" />
              <mxPoint x="220" y="615" />
            </Array>
          </mxGeometry>
        </mxCell>
        <mxCell id="UACE9q_lkyPn0epldcP_-49" value="" style="ellipse;html=1;shape=endState;fillColor=#000000;strokeColor=#ff0000;" parent="1c1d494c118603dd-3" vertex="1">
          <mxGeometry x="143.5" y="930" width="30" height="30" as="geometry" />
        </mxCell>
        <mxCell id="UACE9q_lkyPn0epldcP_-51" value="&lt;font style=&quot;font-size: 14px;&quot; face=&quot;Calibri&quot;&gt;motor spin&lt;br&gt;&lt;/font&gt;" style="ellipse;shape=umlControl;whiteSpace=wrap;html=1;" parent="1c1d494c118603dd-3" vertex="1">
          <mxGeometry x="113.5" y="690" width="70" height="80" as="geometry" />
        </mxCell>
        <mxCell id="UACE9q_lkyPn0epldcP_-61" value="Composite State" style="swimlane;fontStyle=1;align=center;verticalAlign=middle;childLayout=stackLayout;horizontal=1;startSize=30;horizontalStack=0;resizeParent=0;resizeLast=1;container=0;fontColor=#000000;collapsible=0;rounded=1;arcSize=30;strokeColor=#ff0000;fillColor=#ffffc0;swimlaneFillColor=#ffffc0;dropTarget=0;" parent="1c1d494c118603dd-3" vertex="1">
          <mxGeometry x="123.50029960115194" y="420.002681932388" width="160" height="60" as="geometry" />
        </mxCell>
        <mxCell id="UACE9q_lkyPn0epldcP_-62" value="&lt;font style=&quot;font-size: 13px;&quot; face=&quot;Calibri&quot;&gt;overload? fragile?&lt;br&gt;&lt;/font&gt;" style="text;html=1;strokeColor=none;fillColor=none;align=center;verticalAlign=middle;spacingLeft=4;spacingRight=4;whiteSpace=wrap;overflow=hidden;rotatable=0;fontColor=#000000;" parent="UACE9q_lkyPn0epldcP_-61" vertex="1">
          <mxGeometry y="30" width="160" height="30" as="geometry" />
        </mxCell>
        <mxCell id="UACE9q_lkyPn0epldcP_-69" value="&lt;font style=&quot;font-size: 19px;&quot; face=&quot;Calibri&quot;&gt;load on cart&lt;br&gt;&lt;/font&gt;" style="rounded=1;whiteSpace=wrap;html=1;arcSize=40;fontColor=#000000;fillColor=#ffffc0;strokeColor=#ff0000;" parent="1c1d494c118603dd-3" vertex="1">
          <mxGeometry x="160" y="630" width="120" height="40" as="geometry" />
        </mxCell>
        <mxCell id="UACE9q_lkyPn0epldcP_-70" value="" style="edgeStyle=orthogonalEdgeStyle;html=1;verticalAlign=bottom;endArrow=open;endSize=8;strokeColor=#ff0000;rounded=0;entryX=0.945;entryY=0.347;entryDx=0;entryDy=0;entryPerimeter=0;" parent="1c1d494c118603dd-3" source="UACE9q_lkyPn0epldcP_-69" target="UACE9q_lkyPn0epldcP_-51" edge="1">
          <mxGeometry relative="1" as="geometry">
            <mxPoint x="220" y="730" as="targetPoint" />
          </mxGeometry>
        </mxCell>
        <mxCell id="UACE9q_lkyPn0epldcP_-75" value="&lt;font style=&quot;font-size: 16px;&quot; face=&quot;Calibri&quot;&gt;conveyor belt out&lt;br&gt;&lt;/font&gt;" style="rounded=1;whiteSpace=wrap;html=1;arcSize=40;fontColor=#000000;fillColor=#ffffc0;strokeColor=#ff0000;" parent="1c1d494c118603dd-3" vertex="1">
          <mxGeometry x="53.5" y="860" width="120" height="40" as="geometry" />
        </mxCell>
        <mxCell id="UACE9q_lkyPn0epldcP_-76" value="" style="edgeStyle=orthogonalEdgeStyle;html=1;verticalAlign=bottom;endArrow=open;endSize=8;strokeColor=#ff0000;rounded=0;entryX=0;entryY=0.5;entryDx=0;entryDy=0;" parent="1c1d494c118603dd-3" source="UACE9q_lkyPn0epldcP_-75" target="UACE9q_lkyPn0epldcP_-49" edge="1">
          <mxGeometry relative="1" as="geometry">
            <mxPoint x="-120" y="960" as="targetPoint" />
          </mxGeometry>
        </mxCell>
        <mxCell id="UjMMrZVRV0baNj8_YCon-1" value="&lt;font style=&quot;font-size: 13px;&quot; face=&quot;Calibri&quot;&gt;overload? fragile?&lt;/font&gt;" style="rhombus;whiteSpace=wrap;html=1;fontColor=#000000;fillColor=#ffffc0;strokeColor=#ff0000;" vertex="1" parent="1c1d494c118603dd-3">
          <mxGeometry x="140" y="520" width="80" height="40" as="geometry" />
        </mxCell>
        <mxCell id="UjMMrZVRV0baNj8_YCon-2" value="no" style="edgeStyle=orthogonalEdgeStyle;html=1;align=left;verticalAlign=bottom;endArrow=open;endSize=8;strokeColor=#ff0000;rounded=0;exitX=0;exitY=0.5;exitDx=0;exitDy=0;entryX=0.25;entryY=0.5;entryDx=0;entryDy=0;entryPerimeter=0;" edge="1" source="UjMMrZVRV0baNj8_YCon-1" parent="1c1d494c118603dd-3" target="UACE9q_lkyPn0epldcP_-43">
          <mxGeometry x="-0.6838" y="20" relative="1" as="geometry">
            <mxPoint x="450" y="550" as="targetPoint" />
            <mxPoint as="offset" />
          </mxGeometry>
        </mxCell>
        <mxCell id="UjMMrZVRV0baNj8_YCon-4" value="Use" style="endArrow=open;endSize=12;dashed=1;html=1;rounded=0;exitX=0.5;exitY=1;exitDx=0;exitDy=0;entryX=0.5;entryY=0;entryDx=0;entryDy=0;" edge="1" parent="1c1d494c118603dd-3" source="UACE9q_lkyPn0epldcP_-62" target="UjMMrZVRV0baNj8_YCon-1">
          <mxGeometry width="160" relative="1" as="geometry">
            <mxPoint x="270" y="570" as="sourcePoint" />
            <mxPoint x="430" y="570" as="targetPoint" />
          </mxGeometry>
        </mxCell>
        <mxCell id="UACE9q_lkyPn0epldcP_-33" value="yes" style="edgeStyle=orthogonalEdgeStyle;html=1;align=left;verticalAlign=top;endArrow=open;endSize=8;strokeColor=#ff0000;rounded=0;entryX=0;entryY=0.25;entryDx=0;entryDy=0;" parent="1c1d494c118603dd-1" source="UACE9q_lkyPn0epldcP_-31" target="UACE9q_lkyPn0epldcP_-61" edge="1">
          <mxGeometry x="-1" relative="1" as="geometry">
            <mxPoint x="404" y="470" as="targetPoint" />
          </mxGeometry>
        </mxCell>
        <mxCell id="UACE9q_lkyPn0epldcP_-36" value="&lt;font style=&quot;font-size: 12px;&quot; face=&quot;Calibri&quot;&gt;if detected&lt;br&gt;&lt;/font&gt;" style="endArrow=block;endFill=1;html=1;edgeStyle=orthogonalEdgeStyle;align=left;verticalAlign=top;rounded=0;exitX=0.5;exitY=1;exitDx=0;exitDy=0;entryX=0.5;entryY=0;entryDx=0;entryDy=0;" parent="1c1d494c118603dd-1" source="60571a20871a0731-8" target="UACE9q_lkyPn0epldcP_-18" edge="1">
          <mxGeometry x="0.6151" y="-30" relative="1" as="geometry">
            <mxPoint x="290" y="300" as="sourcePoint" />
            <mxPoint x="450" y="300" as="targetPoint" />
            <Array as="points">
              <mxPoint x="410" y="160" />
            </Array>
            <mxPoint as="offset" />
          </mxGeometry>
        </mxCell>
        <mxCell id="UACE9q_lkyPn0epldcP_-46" value="" style="edgeStyle=orthogonalEdgeStyle;html=1;verticalAlign=bottom;endArrow=open;endSize=8;strokeColor=#ff0000;rounded=0;entryX=0.75;entryY=0.5;entryDx=0;entryDy=0;entryPerimeter=0;exitX=0.083;exitY=0.803;exitDx=0;exitDy=0;exitPerimeter=0;" parent="1c1d494c118603dd-1" source="UACE9q_lkyPn0epldcP_-68" target="UACE9q_lkyPn0epldcP_-43" edge="1">
          <mxGeometry relative="1" as="geometry">
            <mxPoint x="458" y="625" as="targetPoint" />
            <mxPoint x="643.5002996011522" y="580" as="sourcePoint" />
          </mxGeometry>
        </mxCell>
        <mxCell id="UACE9q_lkyPn0epldcP_-52" value="&lt;font style=&quot;font-size: 13px;&quot; face=&quot;Tahoma&quot;&gt;timed motor duration&lt;/font&gt;" style="endArrow=open;html=1;endSize=12;startArrow=diamondThin;startSize=14;startFill=0;edgeStyle=orthogonalEdgeStyle;rounded=0;exitX=0.495;exitY=1.014;exitDx=0;exitDy=0;exitPerimeter=0;entryX=0.25;entryY=0;entryDx=0;entryDy=0;" parent="1c1d494c118603dd-1" source="UACE9q_lkyPn0epldcP_-51" target="UACE9q_lkyPn0epldcP_-73" edge="1">
          <mxGeometry relative="1" as="geometry">
            <mxPoint x="340" y="820" as="sourcePoint" />
            <mxPoint x="766.0002996011522" y="830" as="targetPoint" />
          </mxGeometry>
        </mxCell>
        <mxCell id="UACE9q_lkyPn0epldcP_-53" value="&lt;font style=&quot;font-size: 12px;&quot; face=&quot;Calibri&quot;&gt;start spin&lt;/font&gt;" style="edgeLabel;resizable=0;html=1;align=left;verticalAlign=top;" parent="UACE9q_lkyPn0epldcP_-52" connectable="0" vertex="1">
          <mxGeometry x="-1" relative="1" as="geometry" />
        </mxCell>
        <mxCell id="UACE9q_lkyPn0epldcP_-54" value="&lt;font style=&quot;font-size: 12px;&quot; face=&quot;Calibri&quot;&gt;end spin&lt;/font&gt;" style="edgeLabel;resizable=0;html=1;align=right;verticalAlign=top;" parent="UACE9q_lkyPn0epldcP_-52" connectable="0" vertex="1">
          <mxGeometry x="1" relative="1" as="geometry">
            <mxPoint x="48" y="-30" as="offset" />
          </mxGeometry>
        </mxCell>
        <mxCell id="1c1d494c118603dd-4" value="Lane 3" style="swimlane;html=1;startSize=20;" parent="1c1d494c118603dd-1" vertex="1">
          <mxGeometry x="613.5002996011519" y="20" width="250" height="970" as="geometry" />
        </mxCell>
        <mxCell id="60571a20871a0731-8" value="&lt;font style=&quot;font-size: 15px;&quot; face=&quot;Calibri&quot;&gt;Detect objects &lt;/font&gt;" style="rounded=1;whiteSpace=wrap;html=1;shadow=0;comic=0;labelBackgroundColor=none;strokeWidth=1;fontFamily=Verdana;fontSize=12;align=center;arcSize=50;" parent="1c1d494c118603dd-4" vertex="1">
          <mxGeometry x="50" y="110" width="100" height="30" as="geometry" />
        </mxCell>
        <mxCell id="1c1d494c118603dd-33" style="rounded=0;html=1;labelBackgroundColor=none;startArrow=none;startFill=0;startSize=5;endArrow=classicThin;endFill=1;endSize=5;jettySize=auto;orthogonalLoop=1;strokeWidth=1;fontFamily=Verdana;fontSize=12" parent="1c1d494c118603dd-4" source="1c1d494c118603dd-5" target="1c1d494c118603dd-9" edge="1">
          <mxGeometry relative="1" as="geometry" />
        </mxCell>
        <mxCell id="1c1d494c118603dd-5" value="&lt;font style=&quot;font-size: 15px;&quot; face=&quot;Calibri&quot;&gt;push off&lt;/font&gt;" style="rounded=1;whiteSpace=wrap;html=1;shadow=0;comic=0;labelBackgroundColor=none;strokeWidth=1;fontFamily=Verdana;fontSize=12;align=center;arcSize=50;" parent="1c1d494c118603dd-4" vertex="1">
          <mxGeometry x="45" y="208" width="100" height="30" as="geometry" />
        </mxCell>
        <mxCell id="1c1d494c118603dd-8" value="&lt;font face=&quot;Calibri&quot;&gt;receiving info from another group&lt;br&gt;&lt;/font&gt;" style="rounded=1;whiteSpace=wrap;html=1;shadow=0;comic=0;labelBackgroundColor=none;strokeWidth=1;fontFamily=Verdana;fontSize=12;align=center;arcSize=50;" parent="1c1d494c118603dd-4" vertex="1">
          <mxGeometry x="85" y="330" width="100" height="30" as="geometry" />
        </mxCell>
        <mxCell id="1c1d494c118603dd-9" value="&lt;font style=&quot;font-size: 14px;&quot; face=&quot;Calibri&quot;&gt;Object disposed&lt;br&gt;&lt;/font&gt;" style="rounded=0;whiteSpace=wrap;html=1;shadow=0;comic=0;labelBackgroundColor=none;strokeWidth=1;fontFamily=Verdana;fontSize=12;align=center;arcSize=50;" parent="1c1d494c118603dd-4" vertex="1">
          <mxGeometry x="15" y="268" width="70" height="30" as="geometry" />
        </mxCell>
        <mxCell id="1c1d494c118603dd-48" style="edgeStyle=none;rounded=0;html=1;dashed=1;labelBackgroundColor=none;startArrow=none;startFill=0;startSize=5;endArrow=oval;endFill=0;endSize=5;jettySize=auto;orthogonalLoop=1;strokeWidth=1;fontFamily=Verdana;fontSize=12" parent="1c1d494c118603dd-4" source="1c1d494c118603dd-20" target="1c1d494c118603dd-5" edge="1">
          <mxGeometry relative="1" as="geometry" />
        </mxCell>
        <mxCell id="1c1d494c118603dd-49" style="edgeStyle=none;rounded=0;html=1;dashed=1;labelBackgroundColor=none;startArrow=none;startFill=0;startSize=5;endArrow=oval;endFill=0;endSize=5;jettySize=auto;orthogonalLoop=1;strokeWidth=1;fontFamily=Verdana;fontSize=12" parent="1c1d494c118603dd-4" source="1c1d494c118603dd-20" target="1c1d494c118603dd-9" edge="1">
          <mxGeometry relative="1" as="geometry" />
        </mxCell>
        <mxCell id="1c1d494c118603dd-20" value="&lt;font style=&quot;font-size: 15px;&quot; face=&quot;Calibri&quot;&gt;fault detection&lt;br&gt;&lt;/font&gt;" style="shape=note;whiteSpace=wrap;html=1;rounded=0;shadow=0;comic=0;labelBackgroundColor=none;strokeWidth=1;fontFamily=Verdana;fontSize=12;align=center;size=20;" parent="1c1d494c118603dd-4" vertex="1">
          <mxGeometry x="160" y="256" width="75" height="44" as="geometry" />
        </mxCell>
        <mxCell id="1c1d494c118603dd-50" style="edgeStyle=none;rounded=0;html=1;dashed=1;labelBackgroundColor=none;startArrow=none;startFill=0;startSize=5;endArrow=oval;endFill=0;endSize=5;jettySize=auto;orthogonalLoop=1;strokeWidth=1;fontFamily=Verdana;fontSize=12" parent="1c1d494c118603dd-4" source="1c1d494c118603dd-22" target="1c1d494c118603dd-8" edge="1">
          <mxGeometry relative="1" as="geometry" />
        </mxCell>
        <mxCell id="1c1d494c118603dd-22" value="&lt;font face=&quot;Calibri&quot;&gt;ensuring the lecturer has not stuck a pencil in our system; fail safe&lt;br&gt;&lt;/font&gt;" style="shape=note;whiteSpace=wrap;html=1;rounded=0;shadow=0;comic=0;labelBackgroundColor=none;strokeWidth=1;fontFamily=Verdana;fontSize=12;align=center;size=20;" parent="1c1d494c118603dd-4" vertex="1">
          <mxGeometry x="110" y="380" width="140" height="80" as="geometry" />
        </mxCell>
        <mxCell id="1c1d494c118603dd-25" value="&lt;font style=&quot;font-size: 18px;&quot; face=&quot;Calibri&quot;&gt;nextCart()&lt;/font&gt;" style="shape=note;whiteSpace=wrap;html=1;rounded=0;shadow=0;comic=0;labelBackgroundColor=none;strokeWidth=1;fontFamily=Verdana;fontSize=12;align=center;size=20;" parent="1c1d494c118603dd-4" vertex="1">
          <mxGeometry x="135" y="510" width="115" height="50" as="geometry" />
        </mxCell>
        <mxCell id="1c1d494c118603dd-26" value="&lt;font style=&quot;font-size: 16px;&quot; face=&quot;Calibri&quot;&gt;into the airplane&lt;br&gt;&lt;/font&gt;" style="shape=note;whiteSpace=wrap;html=1;rounded=0;shadow=0;comic=0;labelBackgroundColor=none;strokeWidth=1;fontFamily=Verdana;fontSize=12;align=center;size=20;" parent="1c1d494c118603dd-4" vertex="1">
          <mxGeometry x="70" y="890" width="130" height="60" as="geometry" />
        </mxCell>
        <mxCell id="UACE9q_lkyPn0epldcP_-10" value="&lt;font style=&quot;font-size: 15px;&quot; face=&quot;Tahoma&quot;&gt;&lt;font style=&quot;font-size: 15px;&quot; face=&quot;Calibri&quot;&gt;conveyor belt in&lt;/font&gt;&lt;br&gt;&lt;/font&gt;" style="text;html=1;align=center;verticalAlign=middle;whiteSpace=wrap;rounded=0;" parent="1c1d494c118603dd-4" vertex="1">
          <mxGeometry x="110" y="45" width="100" height="30" as="geometry" />
        </mxCell>
        <mxCell id="1c1d494c118603dd-57" style="edgeStyle=none;rounded=0;html=1;dashed=1;labelBackgroundColor=none;startArrow=none;startFill=0;startSize=5;endArrow=oval;endFill=0;endSize=5;jettySize=auto;orthogonalLoop=1;strokeWidth=1;fontFamily=Verdana;fontSize=12;entryX=0.979;entryY=0.571;entryDx=0;entryDy=0;entryPerimeter=0;" parent="1c1d494c118603dd-4" source="1c1d494c118603dd-25" target="UACE9q_lkyPn0epldcP_-68" edge="1">
          <mxGeometry relative="1" as="geometry">
            <mxPoint x="115.00000000000023" y="535" as="targetPoint" />
          </mxGeometry>
        </mxCell>
        <mxCell id="UACE9q_lkyPn0epldcP_-55" value="&lt;font style=&quot;font-size: 14px;&quot; face=&quot;Calibri&quot;&gt;lecturer&lt;/font&gt;" style="shape=umlActor;verticalLabelPosition=bottom;verticalAlign=top;html=1;" parent="1c1d494c118603dd-4" vertex="1">
          <mxGeometry x="50" y="370" width="30" height="60" as="geometry" />
        </mxCell>
        <mxCell id="UACE9q_lkyPn0epldcP_-58" value="" style="ellipse;html=1;shape=startState;fillColor=#000000;strokeColor=#ff0000;" parent="1c1d494c118603dd-4" vertex="1">
          <mxGeometry x="90" y="20" width="30" height="30" as="geometry" />
        </mxCell>
        <mxCell id="UACE9q_lkyPn0epldcP_-59" value="" style="edgeStyle=orthogonalEdgeStyle;html=1;verticalAlign=bottom;endArrow=open;endSize=8;strokeColor=#ff0000;rounded=0;entryX=0.5;entryY=0;entryDx=0;entryDy=0;" parent="1c1d494c118603dd-4" source="UACE9q_lkyPn0epldcP_-58" target="60571a20871a0731-8" edge="1">
          <mxGeometry relative="1" as="geometry">
            <mxPoint x="45" y="120" as="targetPoint" />
            <Array as="points">
              <mxPoint x="105" y="80" />
              <mxPoint x="100" y="80" />
            </Array>
          </mxGeometry>
        </mxCell>
        <mxCell id="UACE9q_lkyPn0epldcP_-68" value="&lt;font style=&quot;font-size: 14px;&quot; face=&quot;Calibri&quot;&gt;motor spin&lt;br&gt;&lt;/font&gt;" style="ellipse;shape=umlControl;whiteSpace=wrap;html=1;" parent="1c1d494c118603dd-4" vertex="1">
          <mxGeometry x="39.99970039884806" y="490" width="70" height="80" as="geometry" />
        </mxCell>
        <mxCell id="UACE9q_lkyPn0epldcP_-73" value="&lt;font style=&quot;font-size: 16px;&quot; face=&quot;Calibri&quot;&gt;drop off&lt;/font&gt;" style="rounded=1;whiteSpace=wrap;html=1;arcSize=40;fontColor=#000000;fillColor=#ffffc0;strokeColor=#ff0000;" parent="1c1d494c118603dd-4" vertex="1">
          <mxGeometry x="129.99970039884806" y="810" width="120" height="40" as="geometry" />
        </mxCell>
        <mxCell id="UACE9q_lkyPn0epldcP_-60" value="dispatch" style="html=1;verticalAlign=bottom;endArrow=block;curved=0;rounded=0;exitX=0;exitY=0.75;exitDx=0;exitDy=0;entryX=1;entryY=0.25;entryDx=0;entryDy=0;" parent="1c1d494c118603dd-1" source="UACE9q_lkyPn0epldcP_-73" target="UACE9q_lkyPn0epldcP_-75" edge="1">
          <mxGeometry width="80" relative="1" as="geometry">
            <mxPoint x="791.0002996011522" y="860" as="sourcePoint" />
            <mxPoint x="509.9999999999998" y="897.4999999999998" as="targetPoint" />
          </mxGeometry>
        </mxCell>
        <mxCell id="UjMMrZVRV0baNj8_YCon-3" value="yes" style="edgeStyle=orthogonalEdgeStyle;html=1;align=left;verticalAlign=top;endArrow=open;endSize=8;strokeColor=#ff0000;rounded=0;entryX=0.074;entryY=0.379;entryDx=0;entryDy=0;entryPerimeter=0;" edge="1" source="UjMMrZVRV0baNj8_YCon-1" parent="1c1d494c118603dd-1" target="UACE9q_lkyPn0epldcP_-68">
          <mxGeometry x="-1" y="20" relative="1" as="geometry">
            <mxPoint x="640" y="650" as="targetPoint" />
            <mxPoint as="offset" />
          </mxGeometry>
        </mxCell>
      </root>
    </mxGraphModel>
  </diagram>
</mxfile>
